<svg xmlns="http://www.w3.org/2000/svg" width="512" height="512"><path d="M256 512a256 256 0 1 1 0-512 256 256 0 0 1 0 512zm216-221c-8-2-68-20-136-9 28 78 40 142 42 156 49-34 84-86 94-147zM341 458c-3-20-16-86-46-166h-2a300 300 0 0 0-171 137 218 218 0 0 0 219 29zM94 403a348 348 0 0 1 186-147l-18-38c-109 33-215 32-225 32v6c0 56 22 108 57 146v1zM42 212c10 0 100 0 202-27-36-64-75-119-81-127-61 29-107 86-121 154zM205 44c6 8 46 62 81 128 78-29 111-74 115-79a218 218 0 0 0-196-49zm220 74c-4 6-41 53-122 86l15 32 4 11c73-9 146 6 153 7-1-51-19-99-50-136z"/></svg>