<?xml version="1.0" encoding="utf-8"?>
<!-- Generator: Adobe Illustrator 21.0.0, SVG Export Plug-In . SVG Version: 6.00 Build 0)  -->
<svg version="1.1" id="Layer_1" xmlns="http://www.w3.org/2000/svg" xmlns:xlink="http://www.w3.org/1999/xlink" x="0px" y="0px"
	 viewBox="0 0 1356.6 1503.9" style="enable-background:new 0 0 1356.6 1503.9;" xml:space="preserve">
<path d="M444,1503.9c-5.8,0-12.2-0.6-19.3-1.9l2.9-31.9l28.3,0c4.7-1.3,8.5-3.4,11.3-6c5-4.5,7.8-10.7,9-17.1c0.4-2.2,0.6-4.5,0.6-7
	c0-17.2-0.2-33.2-0.4-54.7c-0.2-24.2-0.5-54.2-0.8-88.6c-258.6,47-319-134.7-321.5-142.5c-41.2-104-97.8-130.5-97.9-130.6l-2.1-1.2
	c-130.4-89.1,15.2-87.2,15.6-87.2h0.8c102.1,7.2,156.4,101.3,159.4,106.5l0,0c31,53.2,69.2,79.4,107.1,90.2
	c55,15.7,110.5-0.2,143.3-13.7c4.5-26.9,12-50.1,21.4-69.8c6.3-13.3,13.5-25,21.2-35.1c-98.9-14-198-42.7-275.4-107.8
	C161.8,833.1,103.6,717,103.6,528.1h0.2c0-52.8,9.1-100.9,25.8-144.3c16.5-43.1,40.5-81.6,70.3-115.8c-5.7-16.2-13.6-44.5-16.1-81.9
	c-3.1-45.7,1.9-105.4,29-173.8l0.6-1.2c0,0,11.8-10,28.4-10.9c11-0.6,27.5,0,49.8,4.5c43.5,8.8,110,32.9,201.9,94.2
	c36.3-9.8,73.8-17.2,111.8-22.3c41.1-5.5,83-8.4,124.8-8.6h0.2c41.8,0.2,83.6,3,124.7,8.6c38,5.1,75.6,12.5,111.9,22.3
	C1151.8-24.4,1237,2.8,1237.2,2.9l7.4,2.2l2.9,7.2c27.2,68.5,32.2,128.2,29.2,173.8c-2.5,37.4-10.4,65.6-16.1,81.9
	c29.8,34.1,53.7,72.6,70.2,115.7c16.7,43.6,25.8,91.8,25.8,144.5c0,189.3-58.3,305.3-144.3,377.3c-77.4,64.8-176.6,93.1-275.6,106.9
	c11.6,15.1,22,33.8,30.1,56c10.9,29.9,17.8,66.3,17.8,109.3c0,76.7-0.6,156.6-0.9,209.5c-0.1,19.4-0.2,33.9-0.2,53h0
	c0,2.4,0.2,4.9,0.8,7.6c1.2,6.4,4.1,12.5,8.9,16.8c2.6,2.4,6,4.3,10.2,5.6l30.1,0l3,31.7c-7.1,1.4-13.9,2-20.2,2
	c-6.2,0-11.8-0.6-17-1.8l-538.5,0.1C455.5,1503.3,450,1503.9,444,1503.9L444,1503.9z"/>
</svg>
