<svg xmlns="http://www.w3.org/2000/svg" version="1" viewBox="0 0 1357 1504"><path d="M444 1504l-19-2 3-32h28a27 27 0 0 0 20-23l1-7-1-55v-88c-259 47-319-135-322-143-41-104-98-130-98-130l-2-2c-130-89 15-87 16-87h1c102 7 156 101 159 107 31 53 69 79 107 90 55 16 111 0 143-14a262 262 0 0 1 43-105c-99-14-198-42-275-108-86-72-144-188-144-377a399 399 0 0 1 96-260c-6-16-14-44-16-82-3-46 2-105 29-174v-1s12-10 29-11c11 0 27 0 50 5 43 8 110 33 201 94a878 878 0 0 1 237-31 959 959 0 0 1 237 31c185-123 270-96 270-96l8 2 3 7a364 364 0 0 1 13 256 384 384 0 0 1 96 260c0 190-59 306-145 378-77 64-176 93-275 106 11 15 22 34 30 56 11 30 18 67 18 110l-1 209v61c2 6 4 12 9 17l10 5h31l3 32a105 105 0 0 1-38 0H461l-17 2z"/></svg>
