<svg fill="none" height="532" viewBox="0 0 532 532" width="532" xmlns="http://www.w3.org/2000/svg" xmlns:xlink="http://www.w3.org/1999/xlink"><filter id="a" color-interpolation-filters="sRGB" filterUnits="userSpaceOnUse" height="532" width="532" x="0" y="0"><feFlood flood-opacity="0" result="BackgroundImageFix"/><feColorMatrix in="SourceAlpha" type="matrix" values="0 0 0 0 0 0 0 0 0 0 0 0 0 0 0 0 0 0 127 0"/><feOffset dy="4"/><feGaussianBlur stdDeviation="5"/><feColorMatrix type="matrix" values="0 0 0 0 0 0 0 0 0 0 0 0 0 0 0 0 0 0 0.2 0"/><feBlend in2="BackgroundImageFix" mode="normal" result="effect1_dropShadow"/><feBlend in="SourceGraphic" in2="effect1_dropShadow" mode="normal" result="shape"/></filter><linearGradient id="b" gradientUnits="userSpaceOnUse" x1="266" x2="266" y1="6" y2="518"><stop offset="0" stop-color="#bf7d7d"/><stop offset="1" stop-color="#782424"/></linearGradient><g filter="url(#a)"><rect fill="url(#b)" height="512" rx="110" width="512" x="10" y="6"/><path d="m337.554 243.85c5.134 0 9.451 1.867 12.951 5.6 3.733 3.5 5.599 7.933 5.599 13.3 0 3.033-.7 6.3-2.1 9.8-3.733 8.633-8.983 15.867-15.749 21.7-6.767 5.833-14.234 8.75-22.401 8.75-6.533 0-12.133-2.333-16.8-7-4.433-4.667-6.65-10.967-6.65-18.9 0-4.433.234-9.217.7-14.35.467-3.733.7-6.3.7-7.7 0-1.867-.466-3.267-1.4-4.2-.7-.933-1.633-1.4-2.799-1.4-3.267 0-7.7 3.967-13.301 11.9-5.6 7.7-11.2 17.967-16.8 30.8s-10.15 26.367-13.65 40.6c-2.566 11.2-5.483 18.667-8.75 22.4-3.266 3.733-8.633 5.6-16.1 5.6-8.866 0-15.166-4.667-18.9-14-3.5-9.333-5.25-24.267-5.25-44.8 0-30.333 4.317-59.15 12.95-86.45 2.1-6.767 5.484-11.667 10.15-14.7 4.9-3.267 11.667-4.9 20.3-4.9 4.667 0 7.934.583 9.8 1.75 1.867 1.167 2.8 3.383 2.8 6.65 0 3.733-1.75 12.133-5.25 25.2-2.333 9.333-4.2 17.5-5.6 24.5s-2.566 15.633-3.5 25.9c7.7-20.067 16.334-36.4 25.9-49 9.567-12.6 18.9-21.583 28-26.95s17.384-8.05 24.851-8.05c6.766 0 11.899 1.983 15.4 5.95 3.733 3.733 5.6 9.333 5.6 16.8 0 4.433-1.284 12.833-3.851 25.2z" fill="#fff"/></g></svg>